<svg viewBox="0 0 320 440" xmlns="http://www.w3.org/2000/svg">
  <defs>
    <linearGradient id="b_skin" x1="0" y1="0" x2="0" y2="1"><stop offset="0" stop-color="#f0c394"/><stop offset="1" stop-color="#d99a63"/></linearGradient>
    <linearGradient id="b_robe" x1="0" y1="0" x2="0" y2="1"><stop offset="0" stop-color="#8a5a35"/><stop offset="1" stop-color="#5a3a22"/></linearGradient>
  </defs>
  <!-- 后腿 -->
  <rect x="146" y="300" width="26" height="110" rx="12" fill="#4a2e1c"/>
  <ellipse cx="159" cy="412" rx="20" ry="10" fill="#2a1a10"/>
  <!-- 身体 -->
  <path d="M 128 210 C 126 258 130 296 160 304 C 190 296 194 258 192 210 L 186 198 C 168 208 152 208 134 198 Z" fill="url(#b_robe)"/>
  <path d="M 160 214 L 128 254 L 160 304 L 192 254 Z" fill="#e8d9b8"/>
  <rect x="126" y="292" width="68" height="14" rx="5" fill="#3a2418"/>
  <path d="M 194 292 L 210 300 L 206 310 L 190 302 Z" fill="#3a2418"/>
  <!-- 左臂 -->
  <path d="M 128 216 C 116 244 114 272 124 296 C 134 302 144 290 144 272 L 148 238 C 146 226 140 218 128 216 Z" fill="#7d5a2e"/>
  <circle cx="132" cy="304" r="10" fill="url(#b_skin)"/>
  <!-- 头 -->
  <ellipse cx="160" cy="150" rx="44" ry="50" fill="url(#b_skin)"/>
  <!-- 乱发 -->
  <path d="M 122 132 C 116 78 150 54 160 54 C 170 54 204 78 198 132 C 190 100 178 94 160 94 C 142 94 130 100 122 132 Z" fill="#3a2418"/>
  <path d="M 118 104 C 108 96 112 84 124 82 C 118 76 124 68 134 72 Z" fill="#4a2e1c"/>
  <path d="M 202 104 C 212 96 208 84 196 82 C 202 76 196 68 186 72 Z" fill="#4a2e1c"/>
  <!-- 红头巾 -->
  <path d="M 116 122 Q 160 104 204 122 L 202 138 Q 160 122 118 138 Z" fill="#a83232"/>
  <path d="M 198 128 L 214 122 L 212 134 Z" fill="#c0392b"/>
  <!-- 怒眉 -->
  <path d="M 134 132 Q 144 124 156 128" stroke="#241a10" stroke-width="4" fill="none" stroke-linecap="round"/>
  <path d="M 186 132 Q 176 124 164 128" stroke="#241a10" stroke-width="4" fill="none" stroke-linecap="round"/>
  <!-- 眼睛 -->
  <ellipse cx="142" cy="146" rx="7" ry="5" fill="#fff"/>
  <ellipse cx="178" cy="146" rx="7" ry="5" fill="#fff"/>
  <circle cx="144" cy="147" r="3.4" fill="#1a0e08"/>
  <circle cx="176" cy="147" r="3.4" fill="#1a0e08"/>
  <!-- 刀疤 -->
  <path d="M 152 128 L 146 142" stroke="#8a3a2e" stroke-width="2.4" fill="none"/>
  <!-- 嘴（歪笑） -->
  <path d="M 146 168 Q 160 176 176 166" stroke="#5a2a18" stroke-width="3" fill="none" stroke-linecap="round"/>
  <!-- 胡子 -->
  <path d="M 140 158 Q 152 154 162 158 M 160 158 Q 170 154 180 158" stroke="#241a10" stroke-width="2.4" fill="none" stroke-linecap="round"/>
  <!-- 右臂 + 弯刀 -->
  <path d="M 192 218 C 204 246 210 280 200 308 C 190 314 180 302 180 284 L 184 244 C 186 232 190 224 192 218 Z" fill="#7d5a2e"/>
  <circle cx="196" cy="316" r="10" fill="url(#b_skin)"/>
  <g transform="rotate(-30 196 316)">
    <rect x="193" y="286" width="9" height="60" rx="4" fill="#6b4a2f"/>
    <path d="M 196 286 L 190 220 Q 188 208 202 214 Q 207 218 204 226 L 204 286 Z" fill="#c9d4de" stroke="#6a7a8a" stroke-width="1.4"/>
    <rect x="190" y="286" width="15" height="9" rx="3" fill="#8a5a20"/>
  </g>
  <!-- 前腿 -->
  <rect x="178" y="300" width="26" height="110" rx="12" fill="url(#b_robe)"/>
  <ellipse cx="191" cy="412" rx="20" ry="10" fill="#2a1a10"/>
</svg>
