<svg viewBox="0 0 380 500" xmlns="http://www.w3.org/2000/svg">
  <defs>
    <linearGradient id="k_skin" x1="0" y1="0" x2="0" y2="1"><stop offset="0" stop-color="#e8b98a"/><stop offset="1" stop-color="#c4885a"/></linearGradient>
    <linearGradient id="k_armor" x1="0" y1="0" x2="0" y2="1"><stop offset="0" stop-color="#3a2a3a"/><stop offset="1" stop-color="#1a101a"/></linearGradient>
  </defs>
  <!-- 后腿 -->
  <rect x="172" y="350" width="32" height="120" rx="14" fill="#14101a"/>
  <ellipse cx="188" cy="472" rx="23" ry="11" fill="#0a080e"/>
  <!-- 身体（魁梧） -->
  <path d="M 148 240 C 142 300 148 348 190 360 C 232 348 238 300 232 240 L 222 224 C 198 238 182 238 158 224 Z" fill="url(#k_armor)"/>
  <circle cx="190" cy="296" r="20" fill="#b8862b" stroke="#5a3a12" stroke-width="2.5"/>
  <rect x="142" y="340" width="96" height="18" rx="6" fill="#a83232"/>
  <path d="M 238 340 L 258 350 L 252 364 L 232 354 Z" fill="#a83232"/>
  <!-- 左臂 -->
  <path d="M 150 248 C 134 284 132 324 146 354 C 160 364 172 348 172 326 L 176 280 C 174 266 166 254 150 248 Z" fill="#2a1e2e"/>
  <circle cx="154" cy="362" r="12" fill="url(#k_skin)"/>
  <!-- 头 -->
  <ellipse cx="190" cy="170" rx="52" ry="58" fill="url(#k_skin)"/>
  <!-- 乱发 -->
  <path d="M 144 148 C 136 84 174 56 190 56 C 206 56 244 84 236 148 C 224 110 208 100 190 100 C 172 100 156 110 144 148 Z" fill="#0e0a12"/>
  <path d="M 138 108 C 124 98 130 82 146 82 C 140 72 148 62 162 68 Z" fill="#1a1420"/>
  <path d="M 242 108 C 256 98 250 82 234 82 C 240 72 232 62 218 68 Z" fill="#1a1420"/>
  <!-- 黑头巾 -->
  <path d="M 138 140 Q 190 118 242 140 L 240 158 Q 190 138 140 158 Z" fill="#0e0a12"/>
  <!-- 怒眉 -->
  <path d="M 158 152 Q 170 140 186 146" stroke="#000" stroke-width="6" fill="none" stroke-linecap="round"/>
  <path d="M 222 152 Q 210 140 194 146" stroke="#000" stroke-width="6" fill="none" stroke-linecap="round"/>
  <!-- 眼睛 -->
  <ellipse cx="168" cy="170" rx="9" ry="6.5" fill="#fff"/>
  <ellipse cx="212" cy="170" rx="9" ry="6.5" fill="#fff"/>
  <circle cx="170" cy="171" r="4.4" fill="#1a0e08"/>
  <circle cx="210" cy="171" r="4.4" fill="#1a0e08"/>
  <!-- 鼻 -->
  <path d="M 190 180 L 188 194" stroke="#8a4a2e" stroke-width="3.4" fill="none" stroke-linecap="round"/>
  <!-- 嘴（凶狠） -->
  <path d="M 168 204 Q 190 216 212 202 Q 204 224 190 224 Q 176 224 168 204 Z" fill="#3a1410"/>
  <rect x="182" y="206" width="9" height="9" fill="#fff" rx="1"/>
  <rect x="196" y="205" width="8" height="8" fill="#fff" rx="1"/>
  <!-- 面疤 -->
  <path d="M 162 156 L 154 178" stroke="#7a2a20" stroke-width="3" fill="none"/>
  <!-- 毛领 -->
  <path d="M 140 236 Q 190 220 240 236 Q 246 260 236 268 Q 190 250 144 268 Q 134 260 140 236 Z" fill="#b8b8c8"/>
  <!-- 右臂 + 大斧 -->
  <path d="M 230 250 C 246 286 252 330 236 362 C 220 372 206 356 206 334 L 212 284 C 214 270 222 258 230 250 Z" fill="#2a1e2e"/>
  <circle cx="230" cy="370" r="12" fill="url(#k_skin)"/>
  <g transform="rotate(16 230 370)">
    <rect x="224" y="268" width="16" height="118" rx="7" fill="#4a2e1c" stroke="#2a1a10" stroke-width="2"/>
    <path d="M 230 264 L 218 238 L 242 238 Z" fill="#c0392b"/>
    <path d="M 210 236 L 258 236 C 272 236 272 214 258 212 L 246 212 L 252 194 C 256 182 242 174 232 180 L 226 198 L 214 190 C 202 192 206 236 208 236 Z" fill="#c9d4de" stroke="#5a6a7a" stroke-width="1.6"/>
  </g>
  <!-- 前腿 -->
  <rect x="208" y="350" width="32" height="120" rx="14" fill="#3a2a3a"/>
  <ellipse cx="224" cy="472" rx="23" ry="11" fill="#0e0a12"/>
</svg>
